<svg width="444" height="208" viewBox="0 0 444 208" fill="none" xmlns="http://www.w3.org/2000/svg">
<path d="M112.407 103.953L112.74 102.316C112.851 101.77 112.907 100.952 112.907 99.8603C112.907 99.4237 112.851 99.0418 112.74 98.7143V52.8769C112.851 49.3845 112.907 45.783 112.907 42.0723C113.018 38.2525 113.074 34.7601 113.074 31.5952C113.074 28.321 112.962 24.9378 112.74 21.4454V20.7906C112.74 19.6992 112.685 18.0622 112.574 15.8794C112.574 13.6967 112.518 12.0596 112.407 10.9683C112.407 9.11293 111.851 7.0939 110.74 4.91117C110.073 3.38325 108.962 2.18274 107.407 1.30965C105.406 0.436548 103.629 0 102.073 0C101.184 0 100.406 0.0545677 99.7395 0.163703C99.0728 0.163703 98.3506 0.272842 97.5728 0.491119C96.3505 0.600255 95.0726 1.14594 93.7392 2.12817C92.8503 2.78299 92.2392 3.65608 91.9058 4.74745C91.6836 5.40228 91.4613 6.00253 91.2391 6.54822C91.128 7.0939 91.0169 7.74872 90.9058 8.51268C90.7946 9.05836 90.6835 9.65862 90.5724 10.3134V103.953C90.5724 104.826 90.7391 105.808 91.0724 106.9C91.2947 107.991 91.628 109.082 92.0725 110.174C92.517 111.265 93.2948 112.193 94.4059 112.957C95.5171 113.83 97.0172 114.375 98.9062 114.594C101.906 115.249 104.74 114.921 107.407 113.611C108.851 112.848 109.851 111.865 110.407 110.665L110.907 109.683C111.018 109.573 111.185 109.301 111.407 108.864L112.407 105.426V103.953Z" fill="white"/>
<path d="M79.5873 16.8908C79.365 15.1446 78.7539 13.6167 77.7538 12.307C76.7538 10.9974 75.3093 10.0697 73.4203 9.52401C72.198 9.08746 70.9757 8.76005 69.7534 8.54178C68.5312 8.21437 67.3089 8.05066 66.0866 8.05066C64.7532 7.94153 63.4198 7.88696 62.0864 7.88696C60.8641 7.88696 59.6418 7.83239 58.4195 7.72326H57.5862C48.9191 7.61412 40.1409 7.61412 31.2515 7.72326C29.0292 7.72326 27.2513 7.77782 25.9179 7.88696H13.9174V8.05066C13.3618 7.94153 12.6395 7.88696 11.7506 7.88696C9.8616 7.88696 8.08373 8.37808 6.41698 9.36031C4.97247 10.1243 3.8613 11.4339 3.08349 13.2892C2.19455 15.1446 1.63897 17.2727 1.41674 19.6737C1.1945 20.7651 1.08339 21.8565 1.08339 22.9479C1.08339 23.9301 1.02783 25.0215 0.916712 26.222V27.0405C0.694479 30.642 0.527804 33.9707 0.416687 37.0265C0.416687 40.0824 0.472246 43.5747 0.583362 47.5037V58.6356C0.583362 62.2371 0.527804 65.7841 0.416687 69.2765L0.250013 92.85L0.0833373 105.619V108.238C-0.0277791 109.111 -0.0277791 109.985 0.0833373 110.858C0.194454 111.403 0.250013 111.949 0.250013 112.495C0.361129 113.04 0.416687 113.586 0.416687 114.132C0.527804 114.677 0.638921 115.278 0.750037 115.933C0.861154 116.478 1.08339 117.024 1.41674 117.57L1.91676 118.552C1.91676 118.77 2.02788 119.097 2.25011 119.534C2.58346 120.298 2.97237 120.953 3.41684 121.498C3.97242 121.935 4.528 122.317 5.08358 122.644C7.75038 123.954 10.5839 124.281 13.584 123.627C15.3619 123.299 16.8619 122.699 18.0842 121.826C18.7509 121.28 19.4732 120.243 20.251 118.716C20.4732 118.17 20.6399 117.624 20.751 117.078C20.9733 116.424 21.1955 115.823 21.4177 115.278C21.5288 114.732 21.5844 114.241 21.5844 113.804C21.6955 113.259 21.7511 112.713 21.7511 112.167V110.858L22.2511 72.878L52.9193 72.7143H62.9198L65.2532 72.3869C66.031 72.2777 66.7533 72.1686 67.42 72.0595C68.1978 71.8412 68.8645 71.6229 69.4201 71.4047C70.6424 71.1864 71.698 70.6953 72.5869 69.9313C73.9203 68.6217 74.6426 67.5303 74.7537 66.6572C74.9759 66.0024 75.087 65.4021 75.087 64.8564V62.892C75.087 61.3641 74.4759 59.8907 73.2536 58.4719C72.3647 57.0531 70.9202 56.0163 68.9201 55.3615C67.6978 54.925 66.4755 54.6521 65.2532 54.543C64.0309 54.3247 62.8087 54.161 61.5864 54.0519H57.5862C56.3639 53.9427 55.1416 53.8882 53.9193 53.8882H52.9193C48.6968 53.779 44.8078 53.7245 41.252 53.7245H29.4181C27.8625 53.8336 26.5291 53.8882 25.4179 53.8882H22.5844L22.7511 27.2042V26.7131L57.5862 26.5494H67.42C68.1978 26.5494 68.9201 26.4402 69.5868 26.222C70.4757 26.1128 71.2535 26.0583 71.9202 26.0583C72.698 25.9491 73.4203 25.7854 74.087 25.5671C75.3093 25.0215 76.3093 24.4758 77.0871 23.9301C78.4205 22.8387 79.1428 21.6928 79.2539 20.4923C79.365 19.9466 79.4206 19.4009 79.4206 18.8552C79.5317 18.2004 79.5873 17.5456 79.5873 16.8908Z" fill="white"/>
<path d="M194.885 77.4258C194.663 81.0273 194.44 84.6834 194.218 88.3941C193.996 91.9956 193.385 95.488 192.385 98.8712C192.111 99.9123 191.785 100.922 191.406 101.902C186.66 102.353 182.475 104.685 179.614 108.13C177.634 107.633 175.563 107.369 173.434 107.369C166.075 107.369 159.464 110.508 154.888 115.49C154.461 115.448 154.028 115.427 153.59 115.427C153.459 115.427 153.329 115.429 153.2 115.433C151.346 114.207 149.114 113.488 146.709 113.488C145.103 113.488 143.572 113.809 142.179 114.388C141.388 113.993 140.622 113.568 139.882 113.114C137.215 111.477 135.049 109.348 133.382 106.729C131.715 104.11 130.382 101.272 129.382 98.2164C128.493 95.1606 127.881 91.9956 127.548 88.7215C127.215 85.4474 126.993 82.3916 126.881 79.554C126.437 72.0236 126.437 64.6022 126.881 57.2901V52.5426C126.881 50.6873 126.993 48.8865 127.215 47.1403C127.548 45.3941 128.048 43.8117 128.715 42.3929C129.382 40.865 130.493 39.719 132.048 38.9551C135.382 37.2089 138.438 37.0997 141.215 38.6277C144.104 40.1556 145.827 43.3205 146.382 48.1226C146.716 50.6327 146.827 53.4157 146.716 56.4715C146.716 59.5274 146.827 62.3104 147.049 64.8205C147.16 68.5312 147.271 72.5692 147.382 76.9347C147.494 81.191 148.105 85.0108 149.216 88.3941C150.438 91.7773 152.383 94.342 155.049 96.0882C157.827 97.7253 161.939 97.7799 167.383 96.252C169.939 95.488 171.606 93.5781 172.384 90.5223C173.273 87.4664 173.717 82.9372 173.717 76.9347C173.717 74.3154 173.662 71.4233 173.55 68.2583C173.439 65.0934 173.384 61.983 173.384 58.9271C173.384 55.7622 173.439 52.87 173.55 50.2507C173.773 47.5223 174.106 45.4487 174.55 44.0299C175.106 42.0655 176.273 40.5921 178.051 39.6099C179.828 38.6277 181.717 38.1365 183.718 38.1365C185.718 38.0274 187.607 38.4094 189.385 39.2825C191.162 40.1556 192.385 41.5744 193.051 43.5388C193.718 45.285 194.163 47.5223 194.385 50.2507C194.718 52.87 194.94 55.7622 195.051 58.9271C195.163 61.983 195.163 65.1479 195.051 68.422C195.051 71.587 194.996 74.5883 194.885 77.4258Z" fill="white"/>
<path d="M223.914 97.0637V104.625C224.415 104.884 224.906 105.159 225.386 105.45C228.007 103.889 231.081 102.987 234.368 102.987C237.893 102.987 241.174 104.025 243.915 105.801V79.8746C245.804 79.7654 247.637 79.7109 249.415 79.7109C251.304 79.7109 253.137 79.4926 254.915 79.0561C258.026 78.2921 259.915 76.2185 260.582 72.8353C260.804 71.1982 260.638 69.6703 260.082 68.2515C259.526 66.7236 258.304 65.6868 256.415 65.1411C254.86 64.5954 252.971 64.268 250.748 64.1589C248.637 64.0497 246.304 63.886 243.748 63.6678V59.5751C243.748 58.8112 243.692 57.8835 243.581 56.7921C243.581 55.5916 243.637 54.3911 243.748 53.1906C243.859 51.9901 243.97 50.8442 244.081 49.7528C244.303 48.6614 244.692 47.7883 245.248 47.1335C245.915 46.3696 246.692 45.8784 247.581 45.6602C248.581 45.3328 249.637 45.1691 250.748 45.1691C251.859 45.1691 252.915 45.2236 253.915 45.3328C255.026 45.3328 256.082 45.2236 257.082 45.0053C259.304 44.4597 260.749 43.3683 261.415 41.7312C262.082 40.0942 262.471 38.2934 262.582 36.329C262.693 34.3645 261.971 32.5637 260.415 30.9267C258.971 29.2896 257.471 28.1983 255.915 27.6526C252.582 26.3429 248.859 25.8518 244.748 26.1792C240.637 26.5066 236.97 27.3797 233.747 28.7985C231.081 29.999 229.08 31.7998 227.747 34.2008C226.525 36.4927 225.58 39.2211 224.914 42.3861C224.358 45.4419 224.025 48.8251 223.914 52.5358L223.58 63.6678C223.247 63.6678 222.413 63.7223 221.08 63.8315H218.913C217.135 63.9406 215.635 64.1043 214.413 64.3226C213.302 64.4317 212.024 65.1411 210.58 66.4508C210.024 66.8873 209.579 67.5967 209.246 68.5789C208.913 69.452 208.691 70.4342 208.579 71.5256C208.579 72.617 208.691 73.7084 208.913 74.7997C209.135 75.782 209.58 76.6005 210.246 77.2553C211.468 78.4558 213.413 79.1106 216.08 79.2198C218.858 79.2198 221.525 79.2743 224.08 79.3835C224.08 85.0586 224.025 90.952 223.914 97.0637Z" fill="white"/>
<path d="M318.43 59.4251C320.319 59.9708 321.541 61.0076 322.097 62.5355C322.652 63.9543 322.819 65.4822 322.597 67.1192C321.93 70.5025 320.041 72.5761 316.93 73.34C315.152 73.7766 313.319 73.9948 311.43 73.9948C309.652 73.9948 307.818 74.0494 305.929 74.1586V111.974C305.929 113.741 305.854 115.533 305.702 117.35C301.823 111.521 294.474 108.523 287.285 110.428L285.928 110.788V91.3476C286.04 85.236 286.095 79.3426 286.095 73.6674C283.539 73.5583 280.873 73.5037 278.095 73.5037C275.428 73.3946 273.483 72.7398 272.261 71.5393C271.594 70.8844 271.15 70.0659 270.928 69.0837C270.705 67.9923 270.594 66.9009 270.594 65.8096C270.705 64.7182 270.928 63.736 271.261 62.8629C271.594 61.8807 272.039 61.1713 272.594 60.7347C274.039 59.4251 275.317 58.7157 276.428 58.6065C277.65 58.3883 279.15 58.2246 280.928 58.1154H283.095C284.428 58.0063 285.262 57.9517 285.595 57.9517L285.928 46.8198C286.04 43.1091 286.373 39.7258 286.928 36.67C287.595 33.5051 288.54 30.7766 289.762 28.4847C291.095 26.0837 293.095 24.283 295.762 23.0825C298.985 21.6637 302.651 20.7906 306.763 20.4632C310.874 20.1358 314.596 20.6269 317.93 21.9365C319.486 22.4822 320.986 23.5736 322.43 25.2106C323.986 26.8477 324.708 28.6484 324.597 30.6129C324.486 32.5774 324.097 34.3781 323.43 36.0152C322.764 37.6523 321.319 38.7436 319.097 39.2893C318.097 39.5076 317.041 39.6167 315.93 39.6167C314.93 39.5076 313.874 39.453 312.763 39.453C311.652 39.453 310.596 39.6167 309.596 39.9441C308.707 40.1624 307.929 40.6535 307.263 41.4175C306.707 42.0723 306.318 42.9454 306.096 44.0368C305.985 45.1281 305.874 46.2741 305.763 47.4746C305.652 48.6751 305.596 49.8756 305.596 51.0761C305.707 52.1675 305.763 53.0951 305.763 53.8591V57.9517C308.318 58.17 310.652 58.3337 312.763 58.4428C314.985 58.552 316.874 58.8794 318.43 59.4251Z" fill="white"/>
<path d="M359.144 85.3451V75.0316C359.144 73.722 359.089 72.3032 358.978 70.7753C358.978 69.1382 358.866 67.6103 358.644 66.1915C358.533 64.6636 358.366 63.2994 358.144 62.0989C357.922 60.8984 357.589 59.9707 357.144 59.3159C356.477 58.3337 355.366 57.5697 353.811 57.024C352.366 56.4784 350.81 56.2055 349.144 56.2055C347.588 56.2055 346.088 56.4784 344.643 57.024C343.199 57.4606 342.088 58.1154 341.31 58.9885C340.31 60.4073 339.588 62.208 339.143 64.3908C338.699 66.4644 338.421 68.6471 338.31 70.939C338.199 73.2309 338.143 75.4682 338.143 77.6509C338.254 79.8337 338.31 81.689 338.31 83.2169V101.879C338.421 105.263 338.477 108.591 338.477 111.865C338.588 115.139 338.643 118.032 338.643 120.542C338.865 125.453 339.699 129.273 341.143 132.001C342.699 134.729 345.199 136.203 348.644 136.421C350.977 136.53 352.811 136.094 354.144 135.111C355.589 134.02 356.644 132.656 357.311 131.019C357.977 129.382 358.422 127.636 358.644 125.78C358.866 123.816 359.033 122.015 359.144 120.378C359.255 116.995 359.311 113.339 359.311 109.41V97.2956C359.311 93.1484 359.255 89.1649 359.144 85.3451Z" fill="white"/>
<path d="M375.747 61.7169C375.747 59.2068 375.691 56.5329 375.58 53.6954C375.58 50.8578 376.08 48.2931 377.08 46.0012C377.969 43.9276 379.413 42.4543 381.414 41.5812C383.525 40.5989 385.58 40.3807 387.581 40.9264C389.581 41.2538 391.136 41.854 392.247 42.7271C393.359 43.6002 394.136 44.637 394.581 45.8375C395.136 46.9289 395.47 48.2385 395.581 49.7664L395.914 54.0228C397.025 52.0583 398.414 50.4758 400.081 49.2753C401.748 48.0748 403.47 47.0926 405.248 46.3286C407.026 45.5647 408.693 45.019 410.248 44.6916C411.915 44.3642 413.193 44.2005 414.082 44.2005C418.304 44.2005 422.471 45.1281 426.582 46.9834C430.805 48.7296 434.305 51.2398 437.083 54.5139C438.639 56.4784 439.805 58.552 440.583 60.7347C441.472 62.8083 442.083 64.991 442.417 67.2829C442.861 69.5748 443.139 71.9212 443.25 74.3223C443.361 76.6141 443.472 78.9606 443.583 81.3616C444.139 88.3463 444.139 95.2765 443.583 102.152C443.472 103.571 443.417 105.208 443.417 107.063C443.417 108.919 443.25 110.774 442.917 112.629C442.694 114.375 442.194 115.958 441.417 117.377C440.75 118.686 439.583 119.505 437.916 119.832C435.583 120.378 433.638 120.487 432.083 120.16C430.638 119.941 429.471 119.45 428.583 118.686C427.694 117.922 427.027 116.94 426.582 115.74C426.138 114.539 425.749 113.175 425.416 111.647C425.193 110.447 424.971 109.082 424.749 107.554L424.416 102.643C424.416 101.006 424.36 99.4237 424.249 97.8958V93.4758C424.249 91.4022 424.193 89.1103 424.082 86.6001C423.971 84.09 423.971 81.7436 424.082 79.5608C424.082 74.4314 422.693 70.557 419.915 67.9377C417.249 65.2093 413.582 64.0634 408.915 64.4999C405.359 64.9365 402.248 66.3552 399.581 68.7563C396.914 71.0481 395.636 74.0494 395.748 77.7601V81.689C395.748 82.8895 395.692 84.09 395.581 85.2905V105.426C395.581 109.355 395.081 112.575 394.081 115.085C393.192 117.704 391.692 119.505 389.581 120.487C387.469 121.469 384.969 121.196 382.08 119.669C380.858 119.014 379.858 118.141 379.08 117.049C378.413 115.849 377.858 114.594 377.413 113.284C377.08 111.974 376.858 110.665 376.747 109.355C376.636 107.936 376.524 106.627 376.413 105.426C376.08 101.825 375.858 98.4961 375.747 95.4402V61.7169Z" fill="white"/>
<path d="M280.312 168.011C280.312 164.809 278.938 161.925 276.744 159.9C276.414 145.264 268.473 132.487 256.68 125.282C256.763 124.74 256.805 124.186 256.805 123.622C256.805 117.495 251.782 112.527 245.586 112.527C244.611 112.527 243.666 112.651 242.764 112.882C240.709 110.589 237.71 109.142 234.367 109.142C230.8 109.142 227.623 110.79 225.568 113.357C222.167 110.031 217.492 107.977 212.33 107.977C208.211 107.977 204.403 109.289 201.302 111.508C199.254 109.336 196.337 107.977 193.097 107.977C188.068 107.977 183.811 111.25 182.387 115.76C179.724 114.334 176.674 113.524 173.433 113.524C166.549 113.524 160.531 117.177 157.247 122.63C156.186 121.97 154.935 121.582 153.589 121.582C152.758 121.582 151.965 121.735 151.228 122.002C150.241 120.578 148.585 119.643 146.708 119.643C145.003 119.643 143.48 120.413 142.476 121.622C142.234 121.597 141.99 121.582 141.741 121.582C137.94 121.581 134.859 124.628 134.859 128.386C134.859 132.144 137.94 135.191 141.741 135.191C142.767 135.191 143.736 134.962 144.609 134.562C143.824 136.054 143.369 137.743 143.347 139.537C139.184 142.953 136.532 148.107 136.532 153.874C136.532 158.798 138.468 163.272 141.623 166.602C140.667 168.833 140.138 171.287 140.138 173.863C140.138 183.398 147.387 191.255 156.731 192.35C164.154 198.75 173.86 202.628 184.482 202.628H184.874C186.264 203.238 187.802 203.58 189.422 203.58C191.041 203.58 192.579 203.238 193.969 202.628H197.56C201.171 205.958 206.016 208 211.343 208C216.672 208 221.515 205.959 225.127 202.628H234.507C241.097 202.628 247.335 201.135 252.893 198.474C254.215 198.764 255.587 198.923 256.997 198.923C267.397 198.923 275.829 190.585 275.829 180.3C275.829 179.202 275.727 178.13 275.543 177.085C278.426 175.078 280.312 171.762 280.312 168.011Z" fill="#F9F9F9"/>
<path d="M287.285 110.428C296.263 108.049 305.491 113.318 307.897 122.197C310.302 131.074 304.974 140.199 295.996 142.578L276.749 147.678C267.771 150.057 258.543 144.788 256.137 135.911C253.732 127.032 259.06 117.907 268.037 115.528L287.285 110.428Z" fill="#5C6670"/>
<path d="M286.849 127.968C288.236 127.601 289.058 126.191 288.687 124.82C288.315 123.449 286.89 122.635 285.503 123.003C284.117 123.37 283.294 124.78 283.666 126.151C284.037 127.522 285.462 128.336 286.849 127.968Z" fill="#333E48"/>
<path d="M272.229 105.17C270.089 105.737 268.386 107.108 267.36 108.865C264.672 106.76 261.047 105.894 257.481 106.839C251.496 108.424 247.944 114.508 249.548 120.426C249.564 120.485 249.583 120.542 249.6 120.6C241.071 124.157 236.284 133.476 238.747 142.567C241.439 152.502 251.766 158.397 261.812 155.736C263.339 155.331 264.769 154.75 266.092 154.024C268.037 156.277 271.178 157.362 274.263 156.545C278.541 155.411 281.079 151.063 279.933 146.834C279.273 144.398 277.532 142.537 275.359 141.61C275.959 138.826 275.924 135.865 275.128 132.928C274.152 129.326 272.169 126.259 269.563 123.934C270.368 122.8 270.957 121.523 271.29 120.168C272.853 120.797 274.625 120.954 276.38 120.489C280.658 119.355 283.196 115.007 282.05 110.777C280.904 106.548 276.506 104.037 272.229 105.17Z" fill="#F9F9F9"/>
<path d="M260.951 131.154L264.702 138.363C265.634 140.155 264.797 142.419 263.109 143.277C261.297 144.199 259.072 143.494 258.14 141.702C257.894 141.228 257.762 140.708 257.736 140.209L257.339 132.111C257.288 131.067 258.252 130.173 259.158 130.129C259.929 130.092 260.618 130.516 260.951 131.154Z" fill="#5C6670"/>
<path d="M341.007 17.0544C341.772 14.3273 345.034 13.1673 347.381 14.7877L351.979 17.9629C352.726 18.4788 353.624 18.7371 354.535 18.6981L360.138 18.4576C362.997 18.3348 365.121 21.044 364.288 23.7517L362.655 29.0576C362.39 29.9196 362.419 30.8441 362.738 31.6882L364.7 36.8836C365.702 39.5349 363.753 42.3693 360.891 42.4223L355.284 42.5263C354.372 42.5432 353.492 42.8562 352.779 43.417L348.389 46.8684C346.149 48.6297 342.82 47.6722 341.885 44.9974L340.052 39.7558C339.754 38.9041 339.181 38.1731 338.422 37.6756L333.746 34.6133C331.359 33.0506 331.252 29.6245 333.535 27.9182L338.01 24.5747C338.737 24.0315 339.263 23.2667 339.507 22.3984L341.007 17.0544Z" fill="white"/>
</svg>
